<svg width="500" height="600" xmlns="http://www.w3.org/2000/svg">

    <g>
        <title>Layer 1</title>
        <path stroke="#000" id="svg_8"
            d="m375.19365,272.35984c-15.10449,-25.8775 -33.58375,-46.82804 -52.11977,-61.48376c-21.62862,15.02219 -47.97111,24.16959 -76.68954,24.16959c-28.77482,0 -55.1552,-9.16523 -76.74569,-24.16959c-18.53597,14.65572 -37.03412,35.60625 -52.17568,61.48376c-35.14885,60.08014 -39.01436,121.70704 -8.65561,137.68607c13.59593,7.19805 27.85107,1.83304 42.57824,-11.62455c-2.58335,13.64515 -4.09197,28.43472 -4.09197,43.9042c0,68.72694 28.15301,124.39863 62.84853,124.39863c20.91216,0 31.2643,-20.27131 36.24217,-51.30823c4.95951,31.03692 15.31156,51.30823 36.14793,51.30823c34.75254,0 62.90581,-55.67169 62.90581,-124.39863c0,-15.4695 -1.50912,-30.25905 -4.14862,-43.9042c14.76454,13.45759 29.00093,18.8226 42.6346,11.62455c30.34007,-15.97903 26.41747,-77.60595 -8.7304,-137.68607l-0.00002,0zm-128.84643,-60.75953c58.37931,0 105.72798,-44.90563 105.72798,-100.30009s-47.34867,-100.30021 -105.72798,-100.30021c-58.39917,0 -105.78523,44.91456 -105.78523,100.30021s47.38606,100.30009 105.78523,100.30009z"
            fill="#ed2ded" />
    </g>
</svg>